<?xml version="1.0" encoding="utf-8"?>
<!-- Generator: Adobe Illustrator 21.1.0, SVG Export Plug-In . SVG Version: 6.00 Build 0)  -->
<svg version="1.1" id="레이어_1" xmlns="http://www.w3.org/2000/svg" xmlns:xlink="http://www.w3.org/1999/xlink" x="0px" width="21px" height="20px"
	 y="0px" viewBox="0 0 21 20" style="enable-background:new 0 0 21 20;" xml:space="preserve">
<style type="text/css">
	.st0{fill:#FFFFFF;}
</style>
<g>
	<path class="st0" d="M19.2,4.5h-0.1c0,0,0-1.9,0-2.5s-0.7-1.5-1.5-1.7c-1.7-0.6-3.7,0-3.7,0L1.7,4.5h0.1c-0.9,0-1.7,0.8-1.7,1.7
		v12.1c0,0.9,0.8,1.7,1.7,1.7h17.4c0.9,0,1.7-0.8,1.7-1.7V6.2C21,5.2,20.2,4.5,19.2,4.5z M14.1,2.2c0,0,1.1-0.3,2,0
		c0.4,0.1,0.8,0.6,0.8,0.9c0,0.3,0,1.3,0,1.3H7.6L14.1,2.2z M18.8,17.4c0,0.4-0.3,0.8-0.8,0.8H2.9c-0.4,0-0.8-0.3-0.8-0.8V7.1
		c0-0.4,0.3-0.8,0.8-0.8h15.1c0.4,0,0.8,0.3,0.8,0.8V17.4z"/>
	<circle class="st0" cx="16.3" cy="12.2" r="1"/>
</g>
</svg>
